<svg width="1584" height="720" viewBox="0 0 1584 720" fill="none" xmlns="http://www.w3.org/2000/svg" role="img" aria-labelledby="title desc">
  <title id="title">The Atomic Programmer — Future of Learning</title>
  <desc id="desc">A cinematic blue galactic banner with the Atomic Programmer mascot style and future of learning typography.</desc>
  <defs>
    <radialGradient id="bgGlow" cx="0" cy="0" r="1" gradientUnits="userSpaceOnUse" gradientTransform="translate(520 350) rotate(20) scale(720 430)">
      <stop stop-color="#0EA5FF" stop-opacity="0.75"/>
      <stop offset="0.45" stop-color="#2563EB" stop-opacity="0.28"/>
      <stop offset="1" stop-color="#020617" stop-opacity="0"/>
    </radialGradient>
    <radialGradient id="rightNebula" cx="0" cy="0" r="1" gradientUnits="userSpaceOnUse" gradientTransform="translate(1260 160) rotate(145) scale(780 430)">
      <stop stop-color="#38BDF8" stop-opacity="0.32"/>
      <stop offset="0.6" stop-color="#1D4ED8" stop-opacity="0.18"/>
      <stop offset="1" stop-color="#020617" stop-opacity="0"/>
    </radialGradient>
    <radialGradient id="purpleAccent" cx="0" cy="0" r="1" gradientUnits="userSpaceOnUse" gradientTransform="translate(220 380) rotate(-20) scale(420 310)">
      <stop stop-color="#7C4DFF" stop-opacity="0.34"/>
      <stop offset="1" stop-color="#020617" stop-opacity="0"/>
    </radialGradient>
    <linearGradient id="learningGrad" x1="840" y1="414" x2="1370" y2="414" gradientUnits="userSpaceOnUse">
      <stop stop-color="#5EEBFF"/>
      <stop offset="0.55" stop-color="#22D3EE"/>
      <stop offset="1" stop-color="#60A5FA"/>
    </linearGradient>
    <linearGradient id="atomGrad" x1="0" y1="0" x2="1" y2="1">
      <stop stop-color="#7DD3FC"/>
      <stop offset="0.5" stop-color="#00D4FF"/>
      <stop offset="1" stop-color="#7C4DFF"/>
    </linearGradient>
    <filter id="neon" x="-50%" y="-50%" width="200%" height="200%">
      <feGaussianBlur stdDeviation="10" result="blur"/>
      <feColorMatrix in="blur" type="matrix" values="0 0 0 0 0  0 0 0 0 .83  0 0 0 0 1  0 0 0 .75 0" result="cyan"/>
      <feMerge><feMergeNode in="cyan"/><feMergeNode in="SourceGraphic"/></feMerge>
    </filter>
    <filter id="softShadow" x="-30%" y="-30%" width="160%" height="160%">
      <feDropShadow dx="0" dy="14" stdDeviation="18" flood-color="#000814" flood-opacity="0.65"/>
    </filter>
    <filter id="textGlow" x="-20%" y="-40%" width="140%" height="180%">
      <feGaussianBlur stdDeviation="4" result="blur"/>
      <feMerge><feMergeNode in="blur"/><feMergeNode in="SourceGraphic"/></feMerge>
    </filter>
  </defs>

  <rect width="1584" height="720" fill="#020617"/>
  <rect width="1584" height="720" fill="url(#bgGlow)"/>
  <rect width="1584" height="720" fill="url(#rightNebula)"/>
  <rect width="1584" height="720" fill="url(#purpleAccent)"/>

  <g opacity="0.92">
    <circle cx="70" cy="70" r="1.7" fill="#E0F2FE"/>
    <circle cx="170" cy="180" r="1.2" fill="#93C5FD"/>
    <circle cx="330" cy="95" r="1.6" fill="#FFFFFF"/>
    <circle cx="590" cy="120" r="1.3" fill="#BAE6FD"/>
    <circle cx="760" cy="58" r="1.5" fill="#E0F2FE"/>
    <circle cx="980" cy="108" r="1.5" fill="#FFFFFF"/>
    <circle cx="1168" cy="62" r="1.1" fill="#93C5FD"/>
    <circle cx="1380" cy="120" r="1.7" fill="#CFFAFE"/>
    <circle cx="1510" cy="78" r="1.3" fill="#FFFFFF"/>
    <circle cx="1360" cy="570" r="1.1" fill="#93C5FD"/>
    <circle cx="1230" cy="640" r="1.2" fill="#CFFAFE"/>
    <circle cx="925" cy="615" r="1.4" fill="#FFFFFF"/>
  </g>

  <path d="M0 600C221 550 431 575 626 548C886 512 1038 468 1320 493C1432 503 1517 528 1584 555V720H0V600Z" fill="#06132B" fill-opacity="0.88"/>
  <path d="M0 658C248 612 455 648 686 622C908 597 1088 565 1324 590C1445 603 1520 631 1584 656V720H0V658Z" fill="#020617" fill-opacity="0.95"/>
  <path d="M0 598C340 543 683 581 1026 552C1228 535 1418 522 1584 564" stroke="#0EA5FF" stroke-opacity="0.46" stroke-width="3"/>

  <g opacity="0.82" filter="url(#neon)">
    <ellipse cx="387" cy="310" rx="245" ry="82" stroke="#00D4FF" stroke-opacity="0.75" stroke-width="3" transform="rotate(-15 387 310)"/>
    <ellipse cx="378" cy="320" rx="260" ry="92" stroke="#2563EB" stroke-opacity="0.55" stroke-width="3" transform="rotate(18 378 320)"/>
    <ellipse cx="340" cy="347" rx="290" ry="88" stroke="#7C4DFF" stroke-opacity="0.32" stroke-width="3" transform="rotate(10 340 347)"/>
  </g>

  <g transform="translate(125 125)" filter="url(#softShadow)">
    <ellipse cx="250" cy="505" rx="180" ry="32" fill="#00D4FF" fill-opacity="0.18" filter="url(#neon)"/>
    <path d="M145 120C155 53 204 10 260 10C317 10 361 56 372 120L390 288C399 374 346 445 260 445C174 445 122 374 130 288L145 120Z" fill="#071837" stroke="#123D7A" stroke-width="4"/>
    <path d="M168 127C175 74 213 39 260 39C307 39 344 74 352 127L365 280C371 341 331 390 260 390C189 390 149 341 155 280L168 127Z" fill="#061023"/>
    <path d="M145 120C155 53 204 10 260 10C317 10 361 56 372 120C312 79 204 79 145 120Z" fill="#0A2148"/>
    <path d="M259 14V88" stroke="#2B5EA8" stroke-opacity="0.85" stroke-width="3"/>
    <circle cx="218" cy="205" r="38" fill="#F8FEFF" filter="url(#neon)"/>
    <circle cx="305" cy="205" r="38" fill="#F8FEFF" filter="url(#neon)"/>
    <path d="M132 277C78 270 43 304 35 351C30 386 52 410 85 403C119 397 135 355 150 321L132 277Z" fill="#071837" stroke="#164B8E" stroke-width="4"/>
    <path d="M63 313C51 281 73 257 92 285L109 318" stroke="#172C57" stroke-width="18" stroke-linecap="round"/>
    <path d="M101 300C92 263 121 251 135 285L149 318" stroke="#172C57" stroke-width="18" stroke-linecap="round"/>
    <path d="M140 300C133 266 163 263 171 296L180 328" stroke="#172C57" stroke-width="18" stroke-linecap="round"/>
    <path d="M177 319C195 294 222 311 206 342L186 381" stroke="#172C57" stroke-width="18" stroke-linecap="round"/>
    <path d="M385 286C442 312 457 391 416 427C391 449 352 438 349 403L340 319L385 286Z" fill="#071837" stroke="#164B8E" stroke-width="4"/>
    <g transform="translate(193 306) scale(.55)" filter="url(#neon)">
      <ellipse cx="122" cy="94" rx="105" ry="34" stroke="url(#atomGrad)" stroke-width="9" transform="rotate(-25 122 94)"/>
      <ellipse cx="122" cy="94" rx="105" ry="34" stroke="url(#atomGrad)" stroke-width="9" transform="rotate(25 122 94)" opacity=".86"/>
      <ellipse cx="122" cy="94" rx="105" ry="34" stroke="url(#atomGrad)" stroke-width="9" transform="rotate(90 122 94)" opacity=".75"/>
      <circle cx="122" cy="94" r="22" fill="#00D4FF"/>
      <circle cx="39" cy="53" r="12" fill="#A855F7"/>
      <circle cx="196" cy="102" r="8" fill="#5EEBFF"/>
      <circle cx="77" cy="151" r="9" fill="#38BDF8"/>
    </g>
    <text x="160" y="444" fill="#FFFFFF" font-family="Montserrat, Inter, Arial, sans-serif" font-size="42" font-weight="900" letter-spacing="1">ATOMIC</text>
    <text x="177" y="482" fill="#E0F2FE" font-family="Montserrat, Inter, Arial, sans-serif" font-size="28" font-weight="700" letter-spacing="4">PROGRAMMER</text>
  </g>

  <g transform="translate(780 148)">
    <text x="210" y="34" fill="#F8FAFC" font-family="Montserrat, Inter, Arial, sans-serif" font-size="38" font-weight="900" letter-spacing="26" filter="url(#textGlow)">WELCOME</text>
    <text x="290" y="91" fill="#FFFFFF" font-family="Montserrat, Inter, Arial, sans-serif" font-size="38" font-weight="900" letter-spacing="3">TO THE</text>
    <text x="0" y="210" fill="#FFFFFF" font-family="Montserrat, Inter, Arial, sans-serif" font-size="126" font-weight="900" letter-spacing="-5" filter="url(#textGlow)">FUTURE</text>
    <text x="20" y="305" fill="#FFFFFF" font-family="Montserrat, Inter, Arial, sans-serif" font-size="62" font-weight="900">OF</text>
    <text x="158" y="305" fill="url(#learningGrad)" font-family="Montserrat, Inter, Arial, sans-serif" font-size="86" font-weight="900" letter-spacing="-2" filter="url(#neon)">LEARNING</text>
    <text x="132" y="385" fill="#F8FAFC" font-family="Montserrat, Inter, Arial, sans-serif" font-size="34" font-weight="800">Code. <tspan fill="#22D3EE">Learn.</tspan> <tspan fill="#A855F7">Build the Future.</tspan></text>
  </g>

  <g transform="translate(336 618)">
    <rect x="0" y="0" width="950" height="74" rx="37" fill="#020617" fill-opacity="0.72" stroke="#00D4FF" stroke-width="2"/>
    <text x="72" y="45" fill="#FFFFFF" font-family="Montserrat, Inter, Arial, sans-serif" font-size="24" font-weight="900">HIRAM M. LUGO</text>
    <text x="76" y="64" fill="#22D3EE" font-family="Montserrat, Inter, Arial, sans-serif" font-size="13" font-weight="900" letter-spacing="3">FOUNDER</text>
    <path d="M390 18V56" stroke="#E0F2FE" stroke-opacity="0.38"/>
    <text x="455" y="45" fill="#F8FAFC" font-family="Montserrat, Inter, Arial, sans-serif" font-size="18" font-weight="700">founder@theatomicprogrammer.com</text>
    <path d="M780 18V56" stroke="#E0F2FE" stroke-opacity="0.38"/>
    <text x="825" y="45" fill="#F8FAFC" font-family="Montserrat, Inter, Arial, sans-serif" font-size="18" font-weight="700">787-833-3094</text>
    <circle cx="40" cy="37" r="21" stroke="#00D4FF" stroke-width="3"/>
    <circle cx="40" cy="31" r="7" fill="#E0F2FE"/>
    <path d="M26 50C30 42 50 42 54 50" stroke="#E0F2FE" stroke-width="5" stroke-linecap="round"/>
  </g>
</svg>
