<svg width="1584" height="396" viewBox="0 0 1584 396" fill="none" xmlns="http://www.w3.org/2000/svg" role="img" aria-labelledby="title desc">
  <title id="title">Hiram M. Lugo — GitHub Banner</title>
  <desc id="desc">A blue galactic GitHub profile banner for Hiram M. Lugo and The Atomic Programmer.</desc>
  <defs>
    <radialGradient id="nebulaA" cx="0" cy="0" r="1" gradientUnits="userSpaceOnUse" gradientTransform="translate(1180 120) rotate(150) scale(760 330)">
      <stop stop-color="#00D4FF" stop-opacity="0.55"/>
      <stop offset="0.45" stop-color="#2563EB" stop-opacity="0.24"/>
      <stop offset="1" stop-color="#020617" stop-opacity="0"/>
    </radialGradient>
    <radialGradient id="nebulaB" cx="0" cy="0" r="1" gradientUnits="userSpaceOnUse" gradientTransform="translate(370 300) rotate(-12) scale(620 220)">
      <stop stop-color="#7C4DFF" stop-opacity="0.28"/>
      <stop offset="0.55" stop-color="#0EA5E9" stop-opacity="0.16"/>
      <stop offset="1" stop-color="#020617" stop-opacity="0"/>
    </radialGradient>
    <linearGradient id="titleGrad" x1="704" y1="145" x2="1336" y2="206" gradientUnits="userSpaceOnUse">
      <stop stop-color="#FFFFFF"/>
      <stop offset="0.52" stop-color="#A7F3FF"/>
      <stop offset="1" stop-color="#60A5FA"/>
    </linearGradient>
    <linearGradient id="atomGrad" x1="127" y1="99" x2="326" y2="298" gradientUnits="userSpaceOnUse">
      <stop stop-color="#00D4FF"/>
      <stop offset="0.55" stop-color="#3B82F6"/>
      <stop offset="1" stop-color="#7C4DFF"/>
    </linearGradient>
    <filter id="glow" x="-40%" y="-40%" width="180%" height="180%">
      <feGaussianBlur stdDeviation="12" result="blur"/>
      <feColorMatrix in="blur" type="matrix" values="0 0 0 0 0  0 0 0 0 0.83  0 0 0 0 1  0 0 0 .65 0" result="color"/>
      <feMerge><feMergeNode in="color"/><feMergeNode in="SourceGraphic"/></feMerge>
    </filter>
    <filter id="softGlow" x="-30%" y="-30%" width="160%" height="160%">
      <feGaussianBlur stdDeviation="6" result="blur"/>
      <feMerge><feMergeNode in="blur"/><feMergeNode in="SourceGraphic"/></feMerge>
    </filter>
  </defs>

  <rect width="1584" height="396" rx="28" fill="#020617"/>
  <rect width="1584" height="396" rx="28" fill="url(#nebulaA)"/>
  <rect width="1584" height="396" rx="28" fill="url(#nebulaB)"/>
  <path d="M0 309C241 244 424 334 630 291C872 240 999 127 1285 160C1400 173 1502 217 1584 264V396H0V309Z" fill="#06152E" fill-opacity="0.58"/>
  <path d="M0 342C231 295 421 354 649 323C897 289 1082 239 1323 259C1438 269 1518 297 1584 323V396H0V342Z" fill="#020617" fill-opacity="0.64"/>

  <g opacity="0.8">
    <circle cx="82" cy="64" r="1.6" fill="#CFFAFE"/>
    <circle cx="168" cy="138" r="1.2" fill="#93C5FD"/>
    <circle cx="281" cy="58" r="1.5" fill="#FFFFFF"/>
    <circle cx="476" cy="101" r="1.1" fill="#A5F3FC"/>
    <circle cx="620" cy="44" r="1.4" fill="#C4B5FD"/>
    <circle cx="806" cy="74" r="1.2" fill="#FFFFFF"/>
    <circle cx="957" cy="42" r="1.5" fill="#BAE6FD"/>
    <circle cx="1134" cy="78" r="1.1" fill="#DBEAFE"/>
    <circle cx="1280" cy="55" r="1.7" fill="#FFFFFF"/>
    <circle cx="1452" cy="112" r="1.3" fill="#A5F3FC"/>
    <circle cx="1522" cy="44" r="1.4" fill="#93C5FD"/>
    <circle cx="1392" cy="271" r="1.1" fill="#FFFFFF"/>
    <circle cx="1034" cy="306" r="1.2" fill="#A5F3FC"/>
    <circle cx="746" cy="312" r="1.4" fill="#FFFFFF"/>
  </g>

  <g transform="translate(106 73)" filter="url(#glow)">
    <ellipse cx="136" cy="124" rx="117" ry="38" stroke="url(#atomGrad)" stroke-width="7" transform="rotate(-22 136 124)"/>
    <ellipse cx="136" cy="124" rx="117" ry="38" stroke="url(#atomGrad)" stroke-width="7" transform="rotate(22 136 124)" opacity="0.82"/>
    <ellipse cx="136" cy="124" rx="117" ry="38" stroke="url(#atomGrad)" stroke-width="7" transform="rotate(90 136 124)" opacity="0.72"/>
    <circle cx="136" cy="124" r="25" fill="#020617" stroke="#67E8F9" stroke-width="8"/>
    <circle cx="136" cy="124" r="7" fill="#FFFFFF"/>
  </g>

  <g transform="translate(96 286)">
    <rect x="0" y="0" width="382" height="54" rx="18" fill="#000000" fill-opacity="0.25" stroke="#00D4FF" stroke-opacity="0.28"/>
    <text x="26" y="34" fill="#DFFBFF" font-family="Inter, Segoe UI, Arial, sans-serif" font-size="18" font-weight="700">Small Steps. Atomic Impact.</text>
  </g>

  <g transform="translate(704 92)">
    <text x="0" y="0" fill="#7DD3FC" font-family="Inter, Segoe UI, Arial, sans-serif" font-size="18" font-weight="800" letter-spacing="5">THE ATOMIC PROGRAMMER</text>
    <text x="0" y="68" fill="url(#titleGrad)" font-family="Inter, Segoe UI, Arial, sans-serif" font-size="58" font-weight="900" letter-spacing="-1.5">Hiram M. Lugo</text>
    <text x="0" y="116" fill="#E0F2FE" font-family="Inter, Segoe UI, Arial, sans-serif" font-size="28" font-weight="700">Full-Stack Software Engineer · AI Builder · Founder</text>
    <text x="0" y="158" fill="#AFC6FF" font-family="Inter, Segoe UI, Arial, sans-serif" font-size="21" font-weight="500">Building atomic learning systems, AI products, and production-ready web platforms.</text>
  </g>

  <g transform="translate(704 292)">
    <rect x="0" y="0" width="760" height="58" rx="18" fill="#000000" fill-opacity="0.24" stroke="#00D4FF" stroke-opacity="0.25"/>
    <text x="28" y="36" fill="#FFFFFF" font-family="Inter, Segoe UI, Arial, sans-serif" font-size="18" font-weight="700">founder@theatomicprogrammer.com</text>
    <circle cx="355" cy="29" r="4" fill="#00D4FF" opacity="0.8"/>
    <text x="382" y="36" fill="#E0F2FE" font-family="Inter, Segoe UI, Arial, sans-serif" font-size="18" font-weight="700">787-833-3094</text>
    <circle cx="540" cy="29" r="4" fill="#7C4DFF" opacity="0.65"/>
    <text x="566" y="36" fill="#E0F2FE" font-family="Inter, Segoe UI, Arial, sans-serif" font-size="18" font-weight="700">GearHiram1397</text>
  </g>

  <path d="M704 246H1464" stroke="#00D4FF" stroke-opacity="0.32"/>
  <path d="M704 250H1260" stroke="#7C4DFF" stroke-opacity="0.18"/>
  <rect x="0.5" y="0.5" width="1583" height="395" rx="27.5" stroke="#00D4FF" stroke-opacity="0.18"/>
</svg>
